<svg width="30" height="30" viewBox="0 0 30 30" fill="none" xmlns="http://www.w3.org/2000/svg">
<path d="M20.974 20.7142C21.3009 20.7142 21.5843 20.6062 21.8251 20.3931L17.7041 16.272C17.6053 16.3428 17.5094 16.4116 17.4189 16.4771C17.1105 16.7043 16.8602 16.8816 16.668 17.0086C16.4758 17.136 16.2202 17.2658 15.901 17.3983C15.5816 17.531 15.2841 17.5971 15.0081 17.5971H14.9919C14.7158 17.5971 14.4183 17.531 14.099 17.3983C13.7796 17.2658 13.5239 17.136 13.3319 17.0086C13.1398 16.8816 12.8896 16.7043 12.581 16.4771C12.4951 16.414 12.3997 16.3449 12.2966 16.2708L8.17485 20.3931C8.41567 20.6062 8.69916 20.7142 9.02609 20.7142H20.974Z" fill="white"/>
<path d="M8.54721 13.677C8.23884 13.4714 7.96538 13.2359 7.72731 12.9707V19.2407L11.3595 15.6085C10.6329 15.1012 9.69662 14.4581 8.54721 13.677Z" fill="white"/>
<path d="M21.4611 13.677C20.3555 14.4253 19.4159 15.0695 18.642 15.6099L22.2728 19.2408V12.9707C22.04 13.2306 21.7695 13.4659 21.4611 13.677Z" fill="white"/>
<path d="M20.9748 9.28571H9.02698C8.61015 9.28571 8.28969 9.42647 8.0652 9.70769C7.84052 9.98904 7.72836 10.3409 7.72836 10.7629C7.72836 11.1037 7.8772 11.473 8.17474 11.8709C8.47228 12.2687 8.78888 12.5811 9.1244 12.8083C9.30833 12.9383 9.86301 13.3239 10.7884 13.965C11.288 14.3112 11.7224 14.6129 12.0958 14.8733C12.414 15.095 12.6884 15.2871 12.915 15.4464C12.941 15.4647 12.9819 15.4939 13.0362 15.5327C13.0947 15.5747 13.1687 15.6281 13.26 15.694C13.4359 15.8212 13.582 15.924 13.6983 16.0025C13.8145 16.0811 13.9553 16.1689 14.1205 16.2663C14.2855 16.3636 14.4411 16.4368 14.5872 16.4855C14.7333 16.5341 14.8686 16.5585 14.993 16.5585H15.0092C15.1336 16.5585 15.2689 16.5341 15.415 16.4855C15.5611 16.4368 15.7166 16.3638 15.8818 16.2663C16.0468 16.1689 16.1874 16.0809 16.3039 16.0025C16.4203 15.924 16.5664 15.8212 16.7423 15.694C16.8334 15.6281 16.9074 15.5747 16.9659 15.5329C17.0202 15.4939 17.0611 15.4648 17.0873 15.4464C17.2638 15.3236 17.5389 15.1324 17.9087 14.8756C18.5816 14.408 19.5727 13.7198 20.886 12.8083C21.281 12.5324 21.611 12.1995 21.8762 11.81C22.1409 11.4205 22.2737 11.012 22.2737 10.5845C22.2737 10.2273 22.145 9.92167 21.8881 9.66713C21.631 9.4129 21.3266 9.28571 20.9748 9.28571Z" fill="white"/>
<path fill-rule="evenodd" clip-rule="evenodd" d="M15 1.42857C7.50471 1.42857 1.42857 7.50471 1.42857 15C1.42857 22.4953 7.50471 28.5714 15 28.5714C22.4953 28.5714 28.5714 22.4953 28.5714 15C28.5714 7.50471 22.4953 1.42857 15 1.42857ZM0 15C0 6.71573 6.71573 0 15 0C23.2843 0 30 6.71573 30 15C30 23.2843 23.2843 30 15 30C6.71573 30 0 23.2843 0 15Z" fill="white"/>
</svg>
