<svg width="30" height="30" viewBox="0 0 30 30" fill="none" xmlns="http://www.w3.org/2000/svg">
<path d="M10.509 6.93753C10.8481 6.5981 11.2501 6.42857 11.7143 6.42857H18.5713C19.0357 6.42857 19.4374 6.59824 19.7767 6.93753C20.116 7.27664 20.2857 7.67851 20.2857 8.14277V21.8571C20.2857 22.3214 20.116 22.7232 19.7767 23.0624C19.4374 23.4017 19.0357 23.5714 18.5713 23.5714H11.7143C11.2501 23.5714 10.8481 23.4016 10.5091 23.0624C10.1697 22.7232 10 22.3214 10 21.8571V8.14277C10 7.67851 10.1695 7.27683 10.509 6.93753ZM16.2142 8.14277H14.0712C13.9283 8.14277 13.857 8.21421 13.857 8.35709C13.857 8.49993 13.9283 8.57147 14.0712 8.57147H16.2142C16.357 8.57147 16.4285 8.49993 16.4285 8.35709C16.4285 8.21421 16.3571 8.14277 16.2142 8.14277ZM14.3859 22.6139C14.5958 22.8235 14.848 22.9285 15.1427 22.9285C15.4373 22.9285 15.6895 22.8235 15.8994 22.6139C16.1093 22.4039 16.2142 22.1515 16.2142 21.8571C16.2142 21.5624 16.1091 21.3102 15.8994 21.1004C15.6897 20.8907 15.4373 20.7854 15.1427 20.7854C14.848 20.7854 14.5958 20.8907 14.3859 21.1004C14.176 21.3102 14.0712 21.5624 14.0712 21.8571C14.0712 22.1519 14.1762 22.4039 14.3859 22.6139ZM11.2855 19.7144C11.2855 19.8303 11.3279 19.9311 11.4128 20.0157C11.4979 20.1005 11.5981 20.1427 11.714 20.1427H18.5713C18.6873 20.1427 18.7878 20.1003 18.8726 20.0157C18.9574 19.9311 18.9998 19.8303 18.9998 19.7144V10.2859C18.9998 10.1698 18.9574 10.0693 18.8726 9.98456C18.7877 9.89989 18.6873 9.85725 18.5713 9.85725H11.7143C11.5981 9.85725 11.4978 9.8997 11.4128 9.98456C11.3279 10.0693 11.2857 10.1698 11.2857 10.2859L11.2855 19.7144Z" fill="white"/>
<path fill-rule="evenodd" clip-rule="evenodd" d="M15 1.42857C7.50471 1.42857 1.42857 7.50471 1.42857 15C1.42857 22.4953 7.50471 28.5714 15 28.5714C22.4953 28.5714 28.5714 22.4953 28.5714 15C28.5714 7.50471 22.4953 1.42857 15 1.42857ZM0 15C0 6.71573 6.71573 0 15 0C23.2843 0 30 6.71573 30 15C30 23.2843 23.2843 30 15 30C6.71573 30 0 23.2843 0 15Z" fill="white"/>
</svg>
